<?xml version="1.0" encoding="iso-8859-1"?>
<!-- Generator: Adobe Illustrator 19.0.0, SVG Export Plug-In . SVG Version: 6.00 Build 0)  -->
<svg version="1.1" id="Layer_1" xmlns="http://www.w3.org/2000/svg" xmlns:xlink="http://www.w3.org/1999/xlink" x="0px" y="0px"
	 viewBox="0 0 503.467 503.467" style="enable-background:new 0 0 503.467 503.467;" xml:space="preserve">
<g transform="translate(1 1)">
	<path style="fill:#7EE1E6;" d="M95.427,90.307c30.72-52.907,87.04-87.04,155.307-87.04c0,0-93.867,51.2-93.867,179.2
		C156.867,293.4,216.6,344.6,216.6,395.8v34.133H191c0-76.8-119.467-153.6-119.467-247.467c0-21.333,3.413-40.96,9.387-59.733
		C84.333,110.787,89.453,100.547,95.427,90.307z M250.733,429.933V3.267c0,0,93.867,51.2,93.867,179.2
		c0,110.933-59.733,162.133-59.733,213.333v34.133H250.733z"/>
	<path style="fill:#C49AE9;" d="M429.933,182.467c0,93.867-102.4,153.6-110.933,213.333l-8.533,34.133h-25.6V395.8
		c0-51.2,59.733-102.4,59.733-213.333c0-128-93.867-179.2-93.867-179.2C353.133,3.267,429.933,80.067,429.933,182.467z
		 M156.867,182.467c0-128,93.867-179.2,93.867-179.2v426.667H216.6V395.8C216.6,344.6,156.867,293.4,156.867,182.467z"/>
	<g>
		<path style="fill:#E4F2DE;" d="M481.133,310.467c9.387,0,17.067,7.68,17.067,17.067s-7.68,17.067-17.067,17.067H395.8
			c-9.387,0-17.067-7.68-17.067-17.067s7.68-17.067,17.067-17.067h0.853c4.267-19.627,21.333-34.133,41.813-34.133
			c20.48,0,37.547,14.507,41.813,34.133H481.133z M79.213,91.16c2.56-1.707,5.973-2.56,9.387-2.56c2.56,0,5.12,0.853,6.827,1.707
			c-5.973,10.24-11.093,21.333-14.507,32.427H20.333c-9.387,0-17.067-7.68-17.067-17.067S10.946,88.6,20.333,88.6
			c3.413,0,6.827,0.853,9.387,2.56c2.56-11.093,12.8-19.627,24.747-19.627C66.413,71.533,76.653,80.067,79.213,91.16z"/>
		<path style="fill:#E4F2DE;" d="M310.467,429.933v51.2c0,9.387-7.68,17.067-17.067,17.067h-85.333
			c-9.387,0-17.067-7.68-17.067-17.067v-51.2h25.6h34.133h34.133H310.467z"/>
	</g>
</g>
<path style="fill:#51565F;" d="M294.4,503.467h-85.333c-11.947,0-21.333-9.387-21.333-21.333v-51.2
	c0-34.987-26.453-70.827-54.613-108.373c-31.573-43.52-64.853-87.893-64.853-139.093C68.267,78.507,146.773,0,251.733,0l0,0l0,0l0,0
	l0,0C356.693,0,435.2,78.507,435.2,183.467c0,56.32-34.987,99.84-65.707,138.24c-21.333,26.453-41.813,52.053-45.227,75.947
	c0,2.56-2.56,4.267-5.12,3.413c-2.56,0-4.267-2.56-3.413-5.12c3.413-26.453,24.747-52.053,46.933-80.213
	c29.867-37.547,64-80.213,64-133.12c0-94.72-68.267-167.253-160.427-174.08c26.453,19.627,83.627,74.24,83.627,174.08
	c0,67.413-21.333,112.64-38.4,149.333c-11.093,23.893-21.333,44.373-21.333,64c0,2.56-1.707,4.267-4.267,4.267
	s-4.267-1.707-4.267-4.267c0-21.333,10.24-43.52,22.187-68.267c17.067-35.84,37.547-80.213,37.547-145.067
	C341.333,78.507,276.48,25.6,256,11.093V396.8c0,2.56-1.707,4.267-4.267,4.267c-2.56,0-4.267-1.707-4.267-4.267V11.947
	c-20.48,14.507-85.333,66.56-85.333,171.52c0,64.853,21.333,109.227,37.547,145.067c11.947,24.747,22.187,46.08,22.187,68.267
	c0,2.56-1.707,4.267-4.267,4.267s-4.267-1.707-4.267-4.267c0-19.627-9.387-40.107-21.333-64c-17.067-36.693-38.4-81.92-38.4-149.333
	c0-99.84,57.173-154.453,83.627-174.08C145.067,16.213,76.8,88.747,76.8,183.467c0,47.787,32.427,91.307,63.147,133.973
	c29.013,39.253,56.32,75.947,56.32,113.493v51.2c0,6.827,5.973,12.8,12.8,12.8H294.4c6.827,0,12.8-5.973,12.8-12.8V435.2h-81.067
	c-2.56,0-4.267-1.707-4.267-4.267c0-2.56,1.707-4.267,4.267-4.267h85.333c2.56,0,4.267,1.707,4.267,4.267v51.2
	C315.733,494.08,306.347,503.467,294.4,503.467z M482.133,349.867h-93.867c-2.56,0-4.267-1.707-4.267-4.267
	c0-2.56,1.707-4.267,4.267-4.267h93.867c6.827,0,12.8-5.973,12.8-12.8s-5.973-12.8-12.8-12.8c-1.707,0-4.267-1.707-5.12-3.413
	c-3.413-17.92-19.627-30.72-37.547-30.72c-2.56,0-4.267-1.707-4.267-4.267s1.707-4.267,4.267-4.267
	c21.333,0,39.253,14.507,45.227,34.133c10.24,0.853,18.773,10.24,18.773,21.333C503.467,340.48,494.08,349.867,482.133,349.867z
	 M46.933,128h-25.6C9.387,128,0,118.613,0,106.667s9.387-21.333,21.333-21.333c2.56,0,4.267,0,6.827,0.853
	c4.267-11.093,15.36-17.92,27.307-17.92c5.12,0,11.093,1.707,15.36,4.267c1.707,0.853,2.56,4.267,1.707,5.973
	c-0.853,1.707-4.267,2.56-5.973,1.707c-3.413-1.707-6.827-3.413-11.093-3.413c-10.24,0-18.773,6.827-20.48,16.213
	c0,1.707-0.853,2.56-2.56,3.413c-1.707,0.853-2.56,0-4.267,0c-1.707-1.707-4.267-1.707-6.827-1.707c-6.827,0-12.8,5.973-12.8,12.8
	s5.973,12.8,12.8,12.8h25.6c2.56,0,4.267,1.707,4.267,4.267C51.2,127.147,49.493,128,46.933,128z M448,51.2
	c-2.56,0-4.267-1.707-4.267-4.267l0,0c0-1.707-0.853-12.8-12.8-12.8c-5.12,0-11.947,5.12-13.653,7.68
	c-1.707,1.707-4.267,1.707-5.973,0c-1.707-1.707-1.707-4.267,0-5.973c0.853-0.853,10.24-9.387,20.48-9.387
	c8.533,0,13.653,3.413,17.067,7.68c3.413-4.267,8.533-7.68,17.067-7.68c10.24,0,18.773,8.533,20.48,9.387
	c1.707,1.707,1.707,4.267,0,5.973c-1.707,1.707-4.267,1.707-5.973,0c-1.707-1.707-8.533-7.68-13.653-7.68
	c-11.947,0-12.8,11.093-12.8,12.8C452.267,49.493,450.56,51.2,448,51.2z"/>
<g>
</g>
<g>
</g>
<g>
</g>
<g>
</g>
<g>
</g>
<g>
</g>
<g>
</g>
<g>
</g>
<g>
</g>
<g>
</g>
<g>
</g>
<g>
</g>
<g>
</g>
<g>
</g>
<g>
</g>
</svg>
